<svg xmlns="http://www.w3.org/2000/svg" viewBox="0 0 32 32" width="64" height="64">
    <path d="M 26.577 14.339 c 0 0 2.304 0.117 2.304 -1.238 c 0 -1.769 -3.068 -3.364 -3.068 -3.364 s 0.48 -1.019 0.78 -1.588 c 0.3 -0.569 1.145 -2.791 1.22 -3.299 c 0.095 -0.638 -0.05 -0.838 -0.05 -0.838 c -0.208 1.367 -2.436 5.303 -2.613 5.438 c -2.174 -1.018 -5.159 -1.301 -5.159 -1.301 S 17.069 2 14.32 2 c -2.725 0 -2.712 5.265 -2.712 5.265 s -0.77 -1.493 -1.737 -1.493 c -1.413 0 -1.877 2.136 -1.877 4.451 c -2.791 0 -5.138 0.623 -5.348 0.683 c -0.21 0.06 -0.87 0.54 -0.57 0.479 c 0.61 -0.195 3.478 -0.639 5.988 -0.421 c 0.138 2.201 1.424 5.067 1.424 5.067 s -2.758 3.991 -2.758 6.841 c 0 0.75 0.327 2.122 2.307 2.122 c 1.658 0 3.52 -0.996 3.871 -1.199 c -0.306 0.437 -0.533 1.268 -0.533 1.649 c 0 0.313 0.186 1.199 1.464 1.199 c 1.643 0 3.478 -1.258 3.478 -1.258 s 1.732 2.876 3.213 4.195 c 0.399 0.355 0.781 0.42 0.781 0.42 s -1.471 -1.415 -3.409 -5.061 c 1.801 -1.112 3.677 -3.735 3.677 -3.735 s 0.221 0.007 1.931 0.007 c 2.68 0 6.488 -0.563 6.488 -2.691 C 30 16.323 26.577 14.339 26.577 14.339 Z M 26.876 13.017 c 0 0.776 -0.74 0.767 -0.74 0.767 l -0.562 0.037 c 0 0 -1.068 -0.561 -1.714 -0.823 c 0 0 1.002 -1.543 1.236 -1.974 C 25.275 11.127 26.876 12.128 26.876 13.017 Z M 15.662 5.097 c 1.26 0 3.058 2.971 3.058 2.971 s -2.807 -0.251 -5.116 1.105 C 13.667 7.034 14.388 5.097 15.662 5.097 Z M 10.67 7.505 c 0.4 0 0.792 0.486 0.954 0.899 c 0 0.272 0.142 1.864 0.142 1.864 l -2.313 -0.087 C 9.452 8.096 10.27 7.505 10.67 7.505 Z M 10.43 21.977 c -1.264 0 -1.525 -0.704 -1.525 -1.337 c 0 -1.434 1.146 -3.44 1.146 -3.44 s 1.283 2.698 3.525 3.837 C 12.464 21.689 11.546 21.977 10.43 21.977 Z M 14.535 24.802 c -0.886 0 -0.994 -0.574 -0.994 -0.708 c 0 -0.412 0.322 -0.898 0.322 -0.898 s 1.49 -1.006 1.584 -1.113 l 1.101 2.052 C 16.548 24.135 15.421 24.802 14.535 24.802 Z M 17.299 23.683 c -0.539 -0.942 -0.937 -1.926 -0.937 -1.926 s 2.216 0.143 3.406 -1.086 c -0.742 0.334 -1.924 0.754 -3.301 0.627 c 2.878 -2.532 4.556 -4.367 5.976 -6.263 c -0.123 -0.147 -0.771 -0.6 -0.931 -0.676 c -0.857 1.031 -4.188 4.59 -7.274 6.352 c -3.906 -2.129 -4.727 -8.391 -4.81 -9.692 l 2.134 0.205 c 0 0 -0.802 1.42 -0.802 2.466 s 0.125 1.1 0.125 1.1 s -0.027 -1.822 1.1 -3.229 c 0.857 4.563 1.752 6.9 2.449 8.294 c 0.355 -0.147 1.017 -0.44 1.017 -0.44 s -1.972 -5.676 -1.861 -9.517 c 0.894 -0.477 2.217 -0.969 3.711 -0.969 c 3.931 0 7.091 1.69 7.091 1.69 l -1.237 1.725 c 0 0 -1.102 -1.994 -2.657 -2.349 c 0.82 0.611 1.739 1.419 2.217 2.581 c -3.257 -1.272 -7.188 -1.945 -8.45 -2.092 c -0.11 0.465 -0.095 1.129 -0.095 1.129 s 5.272 0.972 9.108 3.165 C 23.251 19.573 18.022 23.256 17.299 23.683 Z M 22.293 20.099 c 0 0 1.637 -2.145 1.611 -4.988 c 0 0 2.644 1.636 2.644 3.232 C 26.548 20.126 22.293 20.099 22.293 20.099 Z" />
</svg>