<?xml version="1.0" encoding="UTF-8" standalone="no"?>
<svg
   xmlns:dc="http://purl.org/dc/elements/1.1/"
   xmlns:cc="http://creativecommons.org/ns#"
   xmlns:rdf="http://www.w3.org/1999/02/22-rdf-syntax-ns#"
   xmlns:svg="http://www.w3.org/2000/svg"
   xmlns="http://www.w3.org/2000/svg"
   xmlns:sodipodi="http://sodipodi.sourceforge.net/DTD/sodipodi-0.dtd"
   xmlns:inkscape="http://www.inkscape.org/namespaces/inkscape"
   width="1792"
   height="1792"
   viewBox="0 0 1792 1792"
   id="svg4658"
   version="1.1"
   inkscape:version="0.91 r13725"
   sodipodi:docname="Frownsvg.svg">
  <metadata
     id="metadata4666">
    <rdf:RDF>
      <cc:Work
         rdf:about="">
        <dc:format>image/svg+xml</dc:format>
        <dc:type
           rdf:resource="http://purl.org/dc/dcmitype/StillImage" />
      </cc:Work>
    </rdf:RDF>
  </metadata>
  <defs
     id="defs4664" />
  <sodipodi:namedview
     pagecolor="#ffffff"
     bordercolor="#666666"
     borderopacity="1"
     objecttolerance="10"
     gridtolerance="10"
     guidetolerance="10"
     inkscape:pageopacity="0"
     inkscape:pageshadow="2"
     inkscape:window-width="1920"
     inkscape:window-height="1017"
     id="namedview4662"
     showgrid="false"
     showguides="true"
     inkscape:guide-bbox="true"
     inkscape:zoom="0.37249375"
     inkscape:cx="1084.0648"
     inkscape:cy="1032.2632"
     inkscape:window-x="-8"
     inkscape:window-y="-8"
     inkscape:window-maximized="1"
     inkscape:current-layer="svg4658" />
  <path
     d="M 884.39844 75.699219 C 852.66016 75.699219 824.88769 82.209635 801.08398 95.230469 C 777.28027 108.2513 759.17415 124.73177 746.76367 144.66992 C 734.35319 164.40462 728.14844 183.93587 728.14844 203.26367 C 728.14844 212.6224 732.01302 221.36979 739.74414 229.50781 C 747.67871 237.44238 757.3431 241.41016 768.73633 241.41016 C 788.06413 241.41016 801.1862 229.91569 808.10352 206.92578 C 815.42774 184.95313 824.37956 168.37142 834.95898 157.18164 C 845.53841 145.78841 862.01888 140.0918 884.39844 140.0918 C 903.52279 140.0918 919.08626 145.68717 931.08984 156.87695 C 943.29688 168.06673 949.40039 181.79818 949.40039 198.07422 C 949.40039 206.41569 947.36589 214.14681 943.29688 221.26758 C 939.43131 228.38834 934.5485 234.89876 928.64844 240.79883 C 922.95182 246.49544 913.5931 255.04036 900.57227 266.43359 C 885.72038 279.45443 873.92024 290.74642 865.17188 300.30859 C 856.4235 309.66731 849.40495 320.65364 844.11523 333.26758 C 838.82552 345.67806 836.17969 360.42774 836.17969 377.51758 C 836.17969 391.14876 839.74056 401.42448 846.86133 408.3418 C 854.18555 415.25911 863.13737 418.7168 873.7168 418.7168 C 894.06185 418.7168 906.16764 408.13737 910.0332 386.97852 C 912.27116 377.00944 913.89876 370.09212 914.91602 366.22656 C 916.13672 362.15755 917.76432 358.18978 919.79883 354.32422 C 921.83333 350.25521 924.88411 345.88249 928.95312 341.20312 C 933.22559 336.32031 938.82096 330.72493 945.73828 324.41797 C 970.76269 302.03841 988.05501 286.16927 997.61719 276.81055 C 1007.3828 267.24837 1015.7253 255.95638 1022.6426 242.93555 C 1029.7634 229.91471 1033.3242 214.75814 1033.3242 197.46484 C 1033.3242 175.49219 1027.1175 155.14714 1014.707 136.42969 C 1002.5 117.71224 985.10645 102.96256 962.52344 92.179688 C 939.94043 81.193354 913.89876 75.699219 884.39844 75.699219 z M 443.36719 180.48438 C 422.6544 180.68279 401.11248 185.08617 378.74219 193.69336 C 349.12084 205.09047 325.54027 221.13967 308 241.83984 C 290.45972 262.54002 279.47767 284.42148 275.05469 307.48633 C 270.55864 330.36129 271.78211 350.81878 278.72266 368.85742 C 282.08334 377.59193 288.83096 384.3685 298.96875 389.1875 C 309.22337 393.74356 319.66748 393.97603 330.30078 389.88477 C 348.33942 382.94422 356.45982 367.50297 354.66016 343.5625 C 353.60555 320.42531 356.00576 301.7366 361.86133 287.49414 C 367.64384 273.0618 380.97839 261.82744 401.86523 253.79102 C 419.714 246.92353 436.24955 246.55647 451.4707 252.68945 C 466.88174 258.74938 477.50885 269.37402 483.35352 284.56445 C 486.34891 292.34955 487.2269 300.29536 485.98633 308.40234 C 484.93564 316.43627 482.71598 324.2654 479.32812 331.89062 C 476.05712 339.25291 470.39116 350.58939 462.33008 365.89844 C 453.14454 383.38405 446.18619 398.15872 441.45508 410.22461 C 436.6509 422.10062 434.04594 434.87477 433.63867 448.54688 C 433.15834 462.02911 435.98614 476.74536 442.12305 492.69531 C 447.01796 505.4173 454.03036 513.72806 463.16016 517.62695 C 472.47984 521.45278 482.07739 521.467 491.95117 517.66797 C 510.93922 510.36213 518.43761 496.14153 514.44727 475.00586 C 512.95609 464.89808 511.99144 457.85779 511.55273 453.88477 C 511.23085 449.6488 511.32524 445.3598 511.83594 441.02148 C 512.27357 436.4933 513.5507 431.3167 515.66797 425.48828 C 517.90206 419.39692 521.11356 412.1652 525.30469 403.79492 C 540.62356 373.92189 551.06521 352.90067 556.62891 340.73242 C 562.30943 328.30124 566.04012 314.76914 567.82031 300.13281 C 569.7904 285.42342 567.6709 269.99726 561.46094 253.85742 C 553.57063 233.35034 540.47205 216.59057 522.16797 203.57812 C 504.05377 190.49263 482.52305 182.97371 457.57422 181.01953 C 452.88262 180.61752 448.14706 180.43858 443.36719 180.48438 z M 1326.0488 184.09961 C 1317.3723 184.17483 1308.8638 184.97416 1300.5234 186.5 C 1273.8341 191.3827 1251.4662 201.33982 1233.4199 216.36914 C 1215.4375 231.20531 1203.4085 247.79741 1197.3359 266.14648 C 1194.3956 275.0313 1195.3168 284.55015 1200.0996 294.70508 C 1205.1395 304.73078 1213.0685 311.53369 1223.8848 315.11328 C 1242.2338 321.1858 1258.3036 314.39655 1272.0938 294.74414 C 1285.9505 276.18531 1299.6574 263.25628 1313.2168 255.95703 C 1326.8401 248.46464 1344.2752 248.23429 1365.5215 255.26562 C 1383.6774 261.27423 1396.6961 271.47464 1404.5762 285.86914 C 1412.6494 300.32756 1414.1293 315.28252 1409.0156 330.73438 C 1406.3949 338.65345 1402.0338 345.35418 1395.9336 350.83594 C 1390.0265 356.38162 1383.3456 361.02976 1375.8906 364.77734 C 1368.6927 368.3957 1357.1227 373.56568 1341.1816 380.29102 C 1322.9909 387.98625 1308.2413 394.99879 1296.9316 401.32812 C 1285.6859 407.46432 1275.5709 415.69067 1266.5859 426.00391 C 1257.6649 436.12399 1250.5198 449.29509 1245.1504 465.51953 C 1240.8677 478.46046 1241.0186 489.33244 1245.6055 498.13672 C 1250.3855 507.00491 1257.7981 513.10188 1267.8418 516.42578 C 1287.1566 522.8179 1301.9734 516.57798 1312.291 497.70508 C 1317.5478 488.94396 1321.2651 482.88732 1323.4453 479.53711 C 1325.8826 476.05767 1328.6743 472.80404 1331.8203 469.77344 C 1335.0302 466.54969 1339.3016 463.35539 1344.6348 460.19141 C 1350.225 456.8982 1357.2952 453.34356 1365.8438 449.5293 C 1396.6322 436.14531 1418.0364 426.51333 1430.0547 420.63281 C 1442.3301 414.62307 1453.7951 406.5241 1464.4531 396.33594 C 1475.3043 386.2117 1483.4476 372.94103 1488.8809 356.52344 C 1495.7844 335.66344 1496.2861 314.3993 1490.3848 292.73047 C 1484.6766 271.12557 1472.7958 251.65632 1454.7441 234.32422 C 1436.7564 216.79896 1413.7604 203.40334 1385.7539 194.13477 C 1365.0388 187.27922 1345.1372 183.93413 1326.0488 184.09961 z M 877.07422 446.48828 C 864.05339 446.48828 853.06706 450.86295 844.11523 459.61133 C 835.16341 468.3597 830.6875 479.1416 830.6875 491.95898 C 830.6875 506.40397 835.26465 517.69596 844.41992 525.83398 C 853.77864 533.76856 864.66373 537.73633 877.07422 537.73633 C 889.0778 537.73633 899.65723 533.66732 908.8125 525.5293 C 917.96777 517.39127 922.54492 506.20052 922.54492 491.95898 C 922.54492 479.1416 918.17024 468.3597 909.42188 459.61133 C 900.6735 450.86295 889.8916 446.48828 877.07422 446.48828 z M 522.75391 539.08594 C 516.9367 538.98077 511.03787 540.07952 505.05664 542.38086 C 492.90429 547.0566 484.22105 555.08346 479.00781 566.46289 C 473.79459 577.84232 473.48912 589.5141 478.0918 601.47656 C 483.27894 614.95807 491.60531 623.85257 503.07227 628.16016 C 514.65604 632.20481 526.23955 631.99758 537.82227 627.54102 C 549.02521 623.23057 557.43826 615.6348 563.06055 604.75195 C 568.68283 593.8691 568.93635 581.78186 563.82227 568.49023 C 559.21959 556.52777 551.26536 548.03507 539.95898 543.01172 C 534.3058 540.50004 528.57112 539.19111 522.75391 539.08594 z M 1246.3984 541.22656 C 1239.7193 541.28391 1233.2171 542.85755 1226.8906 545.94727 C 1215.6435 551.4401 1208.0056 560.27112 1203.9785 572.43945 C 1199.4401 586.15297 1200.2382 598.31168 1206.373 608.91406 C 1212.7649 619.38722 1221.8527 626.57346 1233.6348 630.47266 C 1245.0305 634.24401 1256.353 633.70494 1267.6016 628.85547 C 1278.8501 624.00599 1286.7111 614.82115 1291.1855 601.30078 C 1295.2126 589.13245 1294.4474 577.52078 1288.8906 566.4668 C 1283.3339 555.41281 1274.4711 547.87274 1262.3027 543.8457 C 1256.8946 542.05591 1251.5933 541.18196 1246.3984 541.22656 z M 891.97266 592.4375 C 790.3858 592.4375 696.69806 617.46887 610.9082 667.5332 C 525.11836 717.59754 457.19129 785.52461 407.12695 871.31445 C 357.06262 957.10431 332.0293 1050.794 332.0293 1152.3809 C 332.0293 1253.9677 357.06262 1347.6555 407.12695 1433.4453 C 457.19129 1519.2352 525.11836 1587.1622 610.9082 1637.2266 C 696.69806 1687.2909 790.3858 1712.3223 891.97266 1712.3223 C 993.55952 1712.3223 1087.2493 1687.2909 1173.0391 1637.2266 C 1258.8289 1587.1622 1326.756 1519.2352 1376.8203 1433.4453 C 1426.8846 1347.6555 1451.916 1253.9677 1451.916 1152.3809 C 1451.916 1050.794 1426.8846 957.10431 1376.8203 871.31445 C 1326.756 785.52461 1258.8289 717.59754 1173.0391 667.5332 C 1087.2493 617.46887 993.55952 592.4375 891.97266 592.4375 z M 891.97266 685.76172 C 955.16066 685.76172 1015.5541 698.15618 1073.1523 722.94531 C 1130.7506 747.73445 1180.3285 780.90854 1221.8867 822.4668 C 1263.445 864.02505 1296.6191 913.60289 1321.4082 971.20117 C 1346.1973 1028.7995 1358.5918 1089.1929 1358.5918 1152.3809 C 1358.5918 1215.5689 1346.1973 1275.9623 1321.4082 1333.5605 C 1296.6191 1391.1588 1263.445 1440.7367 1221.8867 1482.2949 C 1180.3285 1523.8532 1130.7506 1557.0273 1073.1523 1581.8164 C 1015.5541 1606.6055 955.16066 1619 891.97266 1619 C 828.78466 1619 768.39126 1606.6055 710.79297 1581.8164 C 653.19468 1557.0273 603.61685 1523.8532 562.05859 1482.2949 C 520.50033 1440.7367 487.32624 1391.1588 462.53711 1333.5605 C 437.74798 1275.9623 425.35352 1215.5689 425.35352 1152.3809 C 425.35352 1089.1929 437.74798 1028.7995 462.53711 971.20117 C 487.32624 913.60289 520.50033 864.02505 562.05859 822.4668 C 603.61685 780.90854 653.19468 747.73445 710.79297 722.94531 C 768.39126 698.15618 828.78466 685.76172 891.97266 685.76172 z M 705.32617 872.4082 C 679.56491 872.4082 657.5691 881.52269 639.3418 899.75 C 621.11449 917.97731 612.00195 939.97116 612.00195 965.73242 C 612.00195 991.49366 621.11449 1013.4875 639.3418 1031.7148 C 657.5691 1049.9422 679.56491 1059.0566 705.32617 1059.0566 C 731.08743 1059.0566 753.08129 1049.9422 771.30859 1031.7148 C 789.53591 1013.4875 798.64844 991.49366 798.64844 965.73242 C 798.64844 939.97116 789.53591 917.97731 771.30859 899.75 C 753.08129 881.52269 731.08743 872.4082 705.32617 872.4082 z M 1078.6211 872.4082 C 1052.8598 872.4082 1030.866 881.52269 1012.6387 899.75 C 994.41141 917.97731 985.29688 939.97116 985.29688 965.73242 C 985.29687 991.49366 994.41141 1013.4875 1012.6387 1031.7148 C 1030.866 1049.9422 1052.8598 1059.0566 1078.6211 1059.0566 C 1104.3824 1059.0566 1126.3762 1049.9422 1144.6035 1031.7148 C 1162.8308 1013.4875 1171.9453 991.49366 1171.9453 965.73242 C 1171.9453 939.97116 1162.8308 917.97731 1144.6035 899.75 C 1126.3762 881.52269 1104.3824 872.4082 1078.6211 872.4082 z M 891.97266 1199.043 C 830.24286 1199.043 774.83246 1217.0256 725.74023 1252.9941 C 676.64802 1288.9627 643.10927 1336.3545 625.125 1395.168 C 621.23651 1407.3195 622.20828 1419.1068 628.04102 1430.5293 C 633.87376 1441.9517 643.11045 1449.6076 655.74805 1453.4961 C 667.89958 1457.3846 679.68498 1456.4109 691.10742 1450.5781 C 702.52986 1444.7454 710.18573 1435.5106 714.07422 1422.873 C 726.22576 1383.9881 748.70648 1352.5151 781.51562 1328.4551 C 814.32475 1304.395 851.14346 1292.3652 891.97266 1292.3652 C 932.80179 1292.3652 969.62049 1304.395 1002.4297 1328.4551 C 1035.2388 1352.5151 1057.7196 1383.9881 1069.8711 1422.873 C 1073.7596 1435.5106 1081.5377 1444.7454 1093.2031 1450.5781 C 1104.8686 1456.4109 1116.7761 1457.3846 1128.9277 1453.4961 C 1141.0793 1449.6076 1150.0716 1441.9517 1155.9043 1430.5293 C 1161.737 1419.1068 1162.7088 1407.3195 1158.8203 1395.168 C 1140.836 1336.3545 1107.2992 1288.9627 1058.207 1252.9941 C 1009.1148 1217.0256 953.70246 1199.043 891.97266 1199.043 z "
     id="path4660" />
  <g
     transform="translate(373.16062,-142.28427)"
     style="font-style:normal;font-weight:normal;font-size:625px;line-height:125%;font-family:sans-serif;letter-spacing:0px;word-spacing:0px;fill:#000000;fill-opacity:1;stroke:none;stroke-width:1px;stroke-linecap:butt;stroke-linejoin:miter;stroke-opacity:1"
     id="flowRoot5208" />
  <g
     transform="matrix(0.94936158,0.31418558,-0.31418558,0.94936158,968.89132,-173.43468)"
     style="font-style:normal;font-weight:normal;font-size:625px;line-height:125%;font-family:sans-serif;letter-spacing:0px;word-spacing:0px;fill:#000000;fill-opacity:1;stroke:none;stroke-width:1px;stroke-linecap:butt;stroke-linejoin:miter;stroke-opacity:1"
     id="flowRoot5208-8" />
  <g
     transform="matrix(0.9333004,-0.35909657,0.35909657,0.9333004,-176.67254,173.83277)"
     style="font-style:normal;font-weight:normal;font-size:625px;line-height:125%;font-family:sans-serif;letter-spacing:0px;word-spacing:0px;fill:#000000;fill-opacity:1;stroke:none;stroke-width:1px;stroke-linecap:butt;stroke-linejoin:miter;stroke-opacity:1"
     id="flowRoot5208-8-7" />
</svg>
