<?xml version="1.0" encoding="UTF-8" standalone="no"?>
<svg
   xmlns="http://www.w3.org/2000/svg"
   width="16"
   height="16"
   version="1.1"
   viewBox="0 0 16 16">
  <g>
    <path
       style="color:#000000;font-style:normal;font-variant:normal;font-weight:normal;font-stretch:normal;font-size:medium;line-height:normal;font-family:sans-serif;text-indent:0;text-align:start;text-decoration:none;text-decoration-line:none;text-decoration-style:solid;text-decoration-color:#000000;letter-spacing:normal;word-spacing:normal;text-transform:none;direction:ltr;block-progression:tb;writing-mode:lr-tb;baseline-shift:baseline;text-anchor:start;white-space:normal;clip-rule:nonzero;display:inline;overflow:visible;visibility:visible;opacity:1;isolation:auto;mix-blend-mode:normal;color-interpolation:sRGB;color-interpolation-filters:linearRGB;solid-color:#000000;solid-opacity:1;fill:#000000;fill-opacity:1;fill-rule:evenodd;stroke:none;stroke-width:1;stroke-linecap:butt;stroke-linejoin:round;stroke-miterlimit:4;stroke-dasharray:none;stroke-dashoffset:0;stroke-opacity:1;color-rendering:auto;image-rendering:auto;shape-rendering:auto;text-rendering:auto;enable-background:accumulate"
       d="M 9.9589844 0.26953125 A 0.50005 0.50005 0 0 0 9.8730469 0.28125 L 6.5722656 1.0019531 L 5.4804688 1.0019531 A 0.50005 0.50005 0 0 0 5.0058594 1.34375 L 1.9765625 2.0058594 A 0.50005 0.50005 0 0 0 1.5957031 2.6015625 L 4.3984375 15.425781 A 0.50005 0.50005 0 0 0 4.9941406 15.806641 L 8.3476562 15.074219 L 13.529297 15.074219 A 0.50005 0.50005 0 0 0 14.029297 14.574219 L 14.029297 1.5019531 A 0.50005 0.50005 0 0 0 13.529297 1.0019531 L 10.542969 1.0019531 L 10.46875 0.66210938 A 0.50005 0.50005 0 0 0 9.9589844 0.26953125 z M 5.9785156 2 L 13.03125 2 L 13.03125 14.074219 L 13.029297 14.074219 L 12.917969 14.074219 L 8.2382812 14.074219 L 5.9804688 14.074219 L 5.9785156 14.074219 L 5.9785156 2 z M 4.9804688 2.3730469 L 4.9804688 13.408203 L 2.6796875 2.875 L 4.9804688 2.3730469 z "
       id="rect3368" />
  </g>
</svg>
