<?xml version="1.0" encoding="UTF-8" standalone="no"?>
<svg
   xmlns:dc="http://purl.org/dc/elements/1.1/"
   xmlns:cc="http://creativecommons.org/ns#"
   xmlns:rdf="http://www.w3.org/1999/02/22-rdf-syntax-ns#"
   xmlns:svg="http://www.w3.org/2000/svg"
   xmlns="http://www.w3.org/2000/svg"
   width="900"
   height="600"
   viewBox="-36 -24 72 48"
   id="svg4136"
   version="1.1">
  <defs
     id="defs4162" />
  <title
     id="title4138">Flag of South Korea</title>
  <path
     style="fill:#000000;fill-opacity:1;stroke:none;stroke-width:1.51999998;stroke-linecap:round;stroke-linejoin:miter;stroke-miterlimit:2;stroke-dasharray:none;stroke-dashoffset:0;stroke-opacity:1"
     d="m -25.21786,7.7909341 1.736291,-1.001794 5.994066,10.3887999 -1.736291,1.001794 z"
     id="rect4255-96-0" />
  <path
     style="fill:#000000;fill-opacity:1;stroke:none;stroke-width:19;stroke-linecap:round;stroke-linejoin:miter;stroke-miterlimit:2;stroke-dasharray:none;stroke-dashoffset:0;stroke-opacity:1"
     d="m -22.737526,6.3405601 1.75076,-1.010142 2.746585,4.7603279 -1.75076,1.010143 z"
     id="rect4257-0-1" />
  <path
     style="fill:#000000;fill-opacity:1;stroke:none;stroke-width:19;stroke-linecap:round;stroke-linejoin:miter;stroke-miterlimit:2;stroke-dasharray:none;stroke-dashoffset:0;stroke-opacity:1"
     d="m -19.509803,11.951504 1.750759,-1.010141 2.746585,4.760328 -1.750759,1.010142 z"
     id="rect4257-2-2-4" />
  <path
     style="fill:#000000;fill-opacity:1;stroke:none;stroke-width:1.51999998;stroke-linecap:round;stroke-linejoin:miter;stroke-miterlimit:2;stroke-dasharray:none;stroke-dashoffset:0;stroke-opacity:1"
     d="m -20.234376,4.8963081 1.736291,-1.001794 5.994066,10.3888009 -1.736291,1.001793 z"
     id="rect4255-9-4-2" />
  <path
     style="fill:#000000;fill-opacity:1;stroke:none;stroke-width:19;stroke-linecap:round;stroke-linejoin:miter;stroke-miterlimit:2;stroke-dasharray:none;stroke-dashoffset:0;stroke-opacity:1"
     d="m 23.489149,6.7709945 1.747296,1.0161208 -2.762842,4.7509117 -1.747295,-1.01612 z"
     id="rect4257" />
  <path
     style="fill:#000000;fill-opacity:1;stroke:none;stroke-width:19;stroke-linecap:round;stroke-linejoin:miter;stroke-miterlimit:2;stroke-dasharray:none;stroke-dashoffset:0;stroke-opacity:1"
     d="m 20.22064,12.387284 1.747296,1.016121 -2.762841,4.750912 -1.747296,-1.01612 z"
     id="rect4257-2" />
  <path
     style="fill:#000000;fill-opacity:1;stroke:none;stroke-width:19;stroke-linecap:round;stroke-linejoin:miter;stroke-miterlimit:2;stroke-dasharray:none;stroke-dashoffset:0;stroke-opacity:1"
     d="M 18.583,3.9178772 20.330296,4.933998 17.567455,9.6849102 15.820159,8.6687893 Z"
     id="rect4257-4" />
  <path
     style="fill:#000000;fill-opacity:1;stroke:none;stroke-width:19;stroke-linecap:round;stroke-linejoin:miter;stroke-miterlimit:2;stroke-dasharray:none;stroke-dashoffset:0;stroke-opacity:1"
     d="m 15.303662,9.5278696 1.747296,1.0161204 -2.762841,4.750913 -1.747296,-1.016121 z"
     id="rect4257-2-1" />
  <path
     style="fill:#000000;fill-opacity:1;stroke:none;stroke-width:19;stroke-linecap:round;stroke-linejoin:miter;stroke-miterlimit:2;stroke-dasharray:none;stroke-dashoffset:0;stroke-opacity:1"
     d="M 21.036075,5.3444363 22.783371,6.3605572 20.02053,11.111469 18.273234,10.095348 Z"
     id="rect4257-4-9" />
  <path
     style="fill:#000000;fill-opacity:1;stroke:none;stroke-width:19;stroke-linecap:round;stroke-linejoin:miter;stroke-miterlimit:2;stroke-dasharray:none;stroke-dashoffset:0;stroke-opacity:1"
     d="m 17.76215,10.957576 1.747297,1.016122 -2.762842,4.750912 -1.747296,-1.016122 z"
     id="rect4257-2-1-4" />
  <path
     style="fill:#000000;fill-opacity:1;stroke:none;stroke-width:1.51999998;stroke-linecap:round;stroke-linejoin:miter;stroke-miterlimit:2;stroke-dasharray:none;stroke-dashoffset:0;stroke-opacity:1"
     d="m -19.246533,-18.155673 1.730541,1.011694 -6.053303,10.3543964 -1.730541,-1.0116946 z"
     id="rect4255" />
  <path
     style="fill:#000000;fill-opacity:1;stroke:none;stroke-width:1.51999998;stroke-linecap:round;stroke-linejoin:miter;stroke-miterlimit:2;stroke-dasharray:none;stroke-dashoffset:0;stroke-opacity:1"
     d="m -14.282044,-15.253375 1.73054,1.011695 -6.053303,10.3543962 -1.730541,-1.0116946 z"
     id="rect4255-5" />
  <path
     style="fill:#000000;fill-opacity:1;stroke:none;stroke-width:1.51999998;stroke-linecap:round;stroke-linejoin:miter;stroke-miterlimit:2;stroke-dasharray:none;stroke-dashoffset:0;stroke-opacity:1"
     d="m -16.7528,-16.697808 1.730541,1.011695 -6.053304,10.354396 -1.73054,-1.0116946 z"
     id="rect4255-9-3" />
  <path
     style="fill:#000000;fill-opacity:1;stroke:none;stroke-width:19;stroke-linecap:round;stroke-linejoin:miter;stroke-miterlimit:2;stroke-dasharray:none;stroke-dashoffset:0;stroke-opacity:1"
     d="m 12.484594,-14.309744 1.747082,-1.016488 2.763842,4.75033 -1.747082,1.0164888 z"
     id="rect4257-9" />
  <path
     style="fill:#000000;fill-opacity:1;stroke:none;stroke-width:19;stroke-linecap:round;stroke-linejoin:miter;stroke-miterlimit:2;stroke-dasharray:none;stroke-dashoffset:0;stroke-opacity:1"
     d="m 15.750674,-8.6920396 1.747082,-1.0164887 2.763841,4.7503303 -1.747082,1.0164887 z"
     id="rect4257-2-3" />
  <path
     style="fill:#000000;fill-opacity:1;stroke:none;stroke-width:1.51999998;stroke-linecap:round;stroke-linejoin:miter;stroke-miterlimit:2;stroke-dasharray:none;stroke-dashoffset:0;stroke-opacity:1"
     d="m 14.977076,-15.759919 1.732644,-1.008088 6.031725,10.3669803 -1.732644,1.0080884 z"
     id="rect4255-5-2" />
  <path
     style="fill:#000000;fill-opacity:1;stroke:none;stroke-width:19;stroke-linecap:round;stroke-linejoin:miter;stroke-miterlimit:2;stroke-dasharray:none;stroke-dashoffset:0;stroke-opacity:1"
     d="m 17.455114,-17.201696 1.747082,-1.016489 2.763842,4.750331 -1.747082,1.016489 z"
     id="rect4257-4-7" />
  <path
     style="fill:#000000;fill-opacity:1;stroke:none;stroke-width:19;stroke-linecap:round;stroke-linejoin:miter;stroke-miterlimit:2;stroke-dasharray:none;stroke-dashoffset:0;stroke-opacity:1"
     d="m 20.710365,-11.577692 1.747082,-1.016488 2.763842,4.75033 -1.747082,1.0164887 z"
     id="rect4257-2-1-6" />
  <path
     style="color:#000000;font-style:normal;font-variant:normal;font-weight:normal;font-stretch:normal;font-size:medium;line-height:normal;font-family:sans-serif;text-indent:0;text-align:start;text-decoration:none;text-decoration-line:none;text-decoration-style:solid;text-decoration-color:#000000;letter-spacing:normal;word-spacing:normal;text-transform:none;direction:ltr;block-progression:tb;writing-mode:lr-tb;baseline-shift:baseline;text-anchor:start;white-space:normal;clip-rule:nonzero;display:inline;overflow:visible;visibility:visible;opacity:1;isolation:auto;mix-blend-mode:normal;color-interpolation:sRGB;color-interpolation-filters:linearRGB;solid-color:#000000;solid-opacity:1;fill:#000000;fill-opacity:1;fill-rule:nonzero;stroke:none;stroke-width:1;stroke-linecap:round;stroke-linejoin:miter;stroke-miterlimit:4;stroke-dasharray:none;stroke-dashoffset:0;stroke-opacity:1;color-rendering:auto;image-rendering:auto;shape-rendering:auto;text-rendering:auto;enable-background:accumulate"
     d="m -0.0642184,-12.498282 c -4.0135456,0.02553 -7.9450808,1.977544 -10.3364066,5.5645316 -3.82612,5.7391816 -2.272305,13.5082544 3.4668746,17.3343754 C -1.1945688,14.226745 6.574504,12.67293 10.400625,6.9337504 14.226745,1.1945688 12.67293,-6.574504 6.9337504,-10.400625 4.781556,-11.83542 2.343908,-12.513598 -0.0642184,-12.498282 Z m 0.002656,0.994532 c 2.2144232,-0.01311 4.4570592,0.61278 6.4406248,1.9351564 C 10.728158,-6.6691968 12.464747,-1.3325272 10.985,3.4135936 A 6,6 0 0 0 0,0 6,6 0 0 1 -10.985938,-3.4106248 c 0.319987,-1.0273064 0.789797,-2.0271176 1.4173444,-2.9684376 2.2039616,-3.3059424 5.8163256,-5.1028336 9.5070312,-5.1246876 z"
     id="circle4150" />
</svg>
