<svg width="1792" height="1792" xmlns="http://www.w3.org/2000/svg">
 <g>
  <path id="svg_1" d="m1478.73759,1446.73759l0,-1088q0,-13 -9.5,-22.5t-22.5,-9.5l-1088,0q-13,0 -22.5,9.5t-9.5,22.5l0,1088q0,13 9.5,22.5t22.5,9.5l1088,0q13,0 22.5,-9.5t9.5,-22.5zm128,-1088l0,1088q0,66 -47,113t-113,47l-1088,0q-66,0 -113,-47t-47,-113l0,-1088q0,-66 47,-113t113,-47l1088,0q66,0 113,47t47,113z"/>
  <path id="svg_4" d="m0.576412,592.276691c0,-35.863014 30.136986,-66 66,-66l407.179871,0c35.863014,0 66,30.136986 66,66l0,-8.758911c0,35.863014 -30.136986,66 -66,66l-407.179871,0c-35.863014,0 -66,-30.136986 -66,-66l0,8.758911z" stroke-opacity="null" stroke-linecap="null" stroke-linejoin="null" stroke-width="null" stroke="null" fill-opacity="null" fill="null"/>
  <path id="svg_5" d="m0.576412,892.67688c0,-35.863014 30.136986,-66 66,-66l407.179871,0c35.863014,0 66,30.136986 66,66l0,-8.758911c0,35.863014 -30.136986,66 -66,66l-407.179871,0c-35.863014,0 -66,-30.136986 -66,-66l0,8.758911z" stroke-opacity="null" stroke-linecap="null" stroke-linejoin="null" stroke-width="null" stroke="null" fill-opacity="null" fill="null"/>
  <path id="svg_6" d="m8.278981,1169.96936c0,-35.863014 30.136986,-66 66,-66l407.179871,0c35.863014,0 66,30.136986 66,66l0,-8.758911c0,35.863014 -30.136986,66 -66,66l-407.179871,0c-35.863014,0 -66,-30.136986 -66,-66l0,8.758911z" stroke-opacity="null" stroke-linecap="null" stroke-linejoin="null" stroke-width="null" stroke="null" fill-opacity="null" fill="null"/>
  <path id="svg_7" d="m1248.392578,615.384399c0,-35.863014 30.136986,-66 66,-66l407.179932,0c35.863014,0 66,30.136986 66,66l0,-8.758911c0,35.863014 -30.136986,66 -66,66l-407.179932,0c-35.863014,0 -66,-30.136986 -66,-66l0,8.758911z" stroke-opacity="null" stroke-linecap="null" stroke-linejoin="null" stroke-width="null" stroke="null" fill-opacity="null" fill="null"/>
  <path id="svg_8" d="m1248.392578,892.67688c0,-35.863014 30.136986,-66 66,-66l407.179932,0c35.863014,0 66,30.136986 66,66l0,-8.758911c0,35.863014 -30.136986,66 -66,66l-407.179932,0c-35.863014,0 -66,-30.136986 -66,-66l0,8.758911z" stroke-opacity="null" stroke-linecap="null" stroke-linejoin="null" stroke-width="null" stroke="null" fill-opacity="null" fill="null"/>
  <path id="svg_9" d="m1248.392578,1169.96936c0,-35.863014 30.136986,-66 66,-66l407.179932,0c35.863014,0 66,30.136986 66,66l0,-8.758911c0,35.863014 -30.136986,66 -66,66l-407.179932,0c-35.863014,0 -66,-30.136986 -66,-66l0,8.758911z" stroke-opacity="null" stroke-linecap="null" stroke-linejoin="null" stroke-width="null" stroke="null" fill-opacity="null" fill="null"/>
  <path id="svg_16" d="m555.564209,68.501963c0,-35.863014 30.136986,-66 66,-66l-9,0c35.863014,0 66,30.136986 66,66l0,407c0,35.863014 -30.136986,66 -66,66l9,0c-35.863014,0 -66,-30.136986 -66,-66l0,-407z" stroke-opacity="null" stroke-linecap="null" stroke-linejoin="null" stroke-width="null" stroke="null" fill-opacity="null" fill="null"/>
  <path id="svg_22" d="m817.451599,68.501963c0,-35.863014 30.136986,-66 66,-66l-9,0c35.863014,0 66,30.136986 66,66l0,407c0,35.863014 -30.136986,66 -66,66l9,0c-35.863014,0 -66,-30.136986 -66,-66l0,-407z" stroke-opacity="null" stroke-linecap="null" stroke-linejoin="null" stroke-width="null" stroke="null" fill-opacity="null" fill="null"/>
  <path id="svg_23" d="m1079.338989,68.501963c0,-35.863014 30.136986,-66 66,-66l-9,0c35.863014,0 66,30.136986 66,66l0,407c0,35.863014 -30.136986,66 -66,66l9,0c-35.863014,0 -66,-30.136986 -66,-66l0,-407z" stroke-opacity="null" stroke-linecap="null" stroke-linejoin="null" stroke-width="null" stroke="null" fill-opacity="null" fill="null"/>
  <path id="svg_24" d="m594.077087,1316.318237c0,-35.863014 30.136986,-66 66,-66l-9,0c35.863014,0 66,30.136986 66,66l0,407c0,35.863014 -30.136986,66 -66,66l9,0c-35.863014,0 -66,-30.136986 -66,-66l0,-407z" stroke-opacity="null" stroke-linecap="null" stroke-linejoin="null" stroke-width="null" stroke="null" fill-opacity="null" fill="null"/>
  <path id="svg_25" d="m879.072124,1316.318237c0,-35.863014 30.136986,-66 66,-66l-9,0c35.863014,0 66,30.136986 66,66l0,407c0,35.863014 -30.136986,66 -66,66l9,0c-35.863014,0 -66,-30.136986 -66,-66l0,-407z" stroke-opacity="null" stroke-linecap="null" stroke-linejoin="null" stroke-width="null" stroke="null" fill-opacity="null" fill="null"/>
  <path id="svg_26" d="m1141.9375,1316.318237c0,-35.863014 30.136986,-66 66,-66l-9,0c35.863014,0 66,30.136986 66,66l0,407c0,35.863014 -30.136986,66 -66,66l9,0c-35.863014,0 -66,-30.136986 -66,-66l0,-407z" stroke-opacity="null" stroke-linecap="null" stroke-linejoin="null" stroke-width="null" stroke="null" fill-opacity="null" fill="null"/>
 </g>
</svg>