<?xml version="1.0" standalone="yes"?>
<svg xmlns="http://www.w3.org/2000/svg" width="1325" height="1325">
<path style="fill:#010101; stroke:none;" d="M296 660L296 707C296 712.905 294.215 722.344 296.717 727.784C300.041 735.011 313.086 729.169 317.145 736.215C327.567 754.308 328.089 778.065 337.759 797C352.184 825.248 375.027 848.375 388.731 877C399.305 899.087 394 930.022 394 954C394 961.745 391.716 973.921 395.139 981C399.588 990.2 409.89 997.89 417 1005L462 1050C487.509 1075.51 514.433 1098.39 542 1121.59C561.352 1137.88 581.779 1156.29 606 1164.88C634.823 1175.11 674.215 1173.56 704 1168.55C736.328 1163.12 761.721 1139.4 786 1119.08C834.336 1078.64 883.182 1035.78 924.563 988C933.192 978.038 931 966.489 931 954C931 931.561 925.968 902.069 934.476 881C946.117 852.171 969.25 828.863 984.56 802C997.148 779.912 1002.8 755.147 1005 730C1010.73 729.837 1026.04 730.028 1029.88 725.31C1035.84 717.986 1031.76 697.967 1032.03 689C1033.02 655.661 1039.53 613.329 1029.93 581C1026.98 571.06 1020.53 561.776 1013.82 554.001C1011.06 550.806 1005.36 546.707 1007.05 541.941C1017.27 513.105 1027.31 486.939 1031.56 456C1036.63 419.07 1033.13 379.14 1032.03 342C1030.89 303.795 1025.91 259.092 997.694 230.196C939.434 170.521 844.796 166.79 767 163.059C656.001 157.737 545.287 191.46 456 258.792C434.084 275.318 414.252 295.275 394 313.883C375.158 331.195 354.86 347.32 338.256 367C324.818 382.927 313.714 400.86 300.489 417C290.185 429.576 282.71 444.286 272.591 457C263.298 468.675 254.994 481.566 246.666 494C227.738 522.261 206.928 550.575 193.44 582C186.687 597.733 183.129 616.097 193.835 631C201.02 641.002 212.183 647.392 223 652.748C231.471 656.942 240.603 659.578 250 660.692C265.496 662.528 280.539 661.349 296 660M618 532C633.561 520.879 658.67 522.062 677 519.831C720.29 514.561 763.605 508.404 807 504.088C822.818 502.514 838.351 499.625 854 496.916C858.799 496.085 868.598 496.123 872.372 492.919C877.146 488.867 860.522 489 859 489C843.624 489 828.334 490 813 490C753.851 490 692.948 487.531 634 492.118C614.15 493.663 593.221 502.032 574 507.109C541.213 515.768 504.293 522.871 474 538.508C428.94 561.768 387.745 593.311 341 613.144C312.396 625.28 280.006 631.574 249 626.543C240.413 625.15 220.481 618.775 220.472 607.999C220.457 590.788 235.929 571.097 244.4 557C269.547 515.149 299.057 475.596 328.884 437C360.944 395.514 394.007 352.471 433 317.197C476.886 277.497 531.365 247.654 586 225.8C609.607 216.357 633.935 206.614 659 201.812C704.524 193.091 753.087 195.667 799 198.885C856.357 202.905 916.621 208.075 964 244.136C1009.13 278.482 999 354.045 999 404C999 423.939 999.916 444.338 996.194 464C992.949 481.138 991.369 514.662 976.773 526.401C968.095 533.379 950.616 533.045 940 534.302C905.072 538.437 868.165 538.626 833 536.941C761.448 533.511 689.713 532 618 532M815 240C807.779 240 798.993 238.645 792 240.575C782.509 243.194 773.362 251.334 765 256.397C744.879 268.58 724.957 281.122 705 293.57C662.17 320.286 617.816 345.275 576 373.544C539.053 398.52 504.233 428.075 469 455.432C443.773 475.02 418.173 494.128 393 513.786C387.047 518.435 380.897 522.827 375.016 527.568C373.779 528.565 369.539 531.217 370.562 533.331C371.663 535.605 376.565 533.153 378 532.556C384.832 529.71 391.384 526.059 398 522.751C427.027 508.237 454.512 492.578 482 475.316C547.368 434.265 615.838 396.126 679 351.769C700.644 336.569 720.546 318.193 741 301.432C764.712 282.002 795.313 263.458 815 240M877 289C870.543 300.215 865.967 319.726 856.301 328.293C848.517 335.192 821.338 335.459 811 336C817.79 349.515 835.486 355.525 841.823 369C847.099 380.22 836.354 403.574 836 416C847.318 410.982 865.539 394.982 878 395.717C892.29 396.56 904.839 412.179 919 415C917.973 403.304 908.022 379.625 913.16 369C919.706 355.463 937.246 349.443 944 336C933.606 335.456 906.538 335.24 898.699 328.293C887.914 318.735 887.061 299.518 877 289M878 306C882.054 314.612 886.521 330.486 894.267 336.286C901.045 341.361 918.632 341.561 927 342C921.878 352.196 907.144 358.181 903.833 369C901.147 377.776 907.516 391.77 908 401C898.381 398.064 887.423 386.741 877.432 386.493C868.154 386.263 855.914 397.996 847 401C847.26 391.866 854.334 376.388 850.735 368C846.271 357.594 833.149 352.25 828 342C836.387 341.267 855.303 341.541 861.542 335.589C869.487 328.009 870.248 314.104 878 306M456 628C454.507 618.645 444.531 601.117 447.78 592.145C450.002 586.011 462.641 581.63 468 578.575C494.92 563.235 523.261 567.932 553 565.196C580.01 562.712 607.988 565.546 635 565.99C709.653 567.214 784.463 570.746 859 570.999C886.082 571.091 913.038 570.221 940 567.896C950.145 567.021 965.22 560.969 975 563.626C983.676 565.984 990.989 576.584 995.096 584C999.789 592.475 999 604.531 999 614L999 668C999 675.471 1001.58 688.882 998.02 695.589C994.103 702.973 978.699 695.825 974.69 704.189C965.834 722.664 971.166 749.123 964.206 769C953.904 798.424 930.124 822.708 914.073 849C898.248 874.919 897 898.464 897 928C897 939.765 900.46 957.983 896.283 969C893.527 976.268 884.388 982.612 879 988L838 1029C814.724 1052.28 789.955 1072.77 765 1094.14C748.622 1108.16 730.652 1125.46 710 1132.88C686.204 1141.43 650.661 1139.18 626 1135.41C603.066 1131.9 584.204 1114.46 567 1100.08C533.944 1072.45 502.486 1044.49 472 1014L442 984C437.671 979.671 430.942 974.868 428.717 969C425.4 960.251 428 946.314 428 937C428 910.291 430.064 884.405 417.208 860C402.583 832.234 380.381 809.09 366.399 781C355.563 759.229 352.233 733.003 344.401 710.004C341.513 701.524 332.818 705.318 329.717 699.479C325.425 691.395 327.463 665.119 329.216 656.091C330.253 650.749 337.651 649.58 342 647.944C355.04 643.038 367.803 636.853 380 630.127C383.802 628.031 390.726 622.279 394.73 626.443C415.206 647.738 408.119 675.859 413.276 702C417.25 722.142 438.768 744.819 457 753.117C484.806 765.773 519.547 772 550 772C563.215 772 575.81 772.736 587 764.449C604.578 751.432 617.824 732.773 631.568 716C636.978 709.398 642.606 698.294 652.003 698.015C657.946 697.838 667.56 696.324 672.941 699.15C679.77 702.737 685.323 712.215 690.279 718C705.202 735.422 722.045 761.762 744 770.84C756.466 775.995 777.566 772 791 772C817.876 772 844.77 771.148 869 757.666C890.858 745.503 914.231 717.141 921.538 693C925.591 679.607 924.934 665.722 926.196 652C927.435 638.531 929.385 621.422 926.784 608.07C925.235 600.115 906.061 608.782 901 610.344C874.485 618.524 847.683 625.958 821 633.575C797.996 640.141 774.55 649.449 751 653.645C711.669 660.654 665.851 660.667 626 657.885C568.007 653.837 513.158 635.792 456 628z"/>
</svg>
