<?xml version="1.0" standalone="yes"?>
<svg xmlns="http://www.w3.org/2000/svg" width="1325" height="1325">
<path style="fill:#865879; stroke:none;" d="M296 660L296 711C296 715.607 294.098 725.865 297.603 729.397C301.155 732.976 312.188 732.901 317 733C318.248 741.451 321.634 749.791 324 758C329.7 777.778 335.956 795.478 347.053 813C361.158 835.27 379.683 855.594 390.127 880C394.592 890.434 394 900.903 394 912L394 955C394 962.371 391.746 974.284 395.024 981C399.499 990.169 409.897 997.897 417 1005L462 1050C487.509 1075.51 514.403 1098.43 542 1121.59C561.266 1137.76 581.196 1155.43 605 1164.54C621.826 1170.98 641.257 1171 659 1171C676.395 1171 693.966 1171.16 711 1167.12C742.646 1159.6 769.043 1133.72 793 1113.13C803.839 1103.82 815.395 1095.42 826 1085.83C847.109 1066.73 866.87 1046.13 887 1026C900.646 1012.35 916.094 999.268 927.941 984C933.669 976.619 931 962.934 931 954L931 912C931 901.314 930.369 891.113 934.453 881C946.092 852.181 969.224 828.832 984.573 802C997.127 780.053 1003.02 755.057 1005 730C1011.03 729.876 1017.04 728.74 1023 727.869C1025.28 727.536 1028.42 727.365 1029.99 725.411C1032.36 722.45 1031.98 716.562 1032 713C1032.04 704.081 1031.32 694.882 1032.17 686C1033.43 672.722 1033 659.348 1033 646C1033 632.652 1033.43 619.278 1032.17 606C1031.29 596.785 1032.46 587.961 1029.3 579C1025.38 567.89 1015.74 551.437 1005 546C1008.77 536.034 1014.97 527.322 1018.33 517C1029.05 484.124 1033 449.358 1033 415C1033 390.964 1033.09 366.965 1032.04 343C1030.5 307.959 1027.02 273.681 1007.93 243C998.434 227.727 982.96 216.747 968 207.319C949.83 195.867 929.713 186.272 909 180.428C880.563 172.405 850.272 169.758 821 166.831C792.378 163.969 763.788 163 735 163C705.466 163 675.998 163.999 647 170.211C623.055 175.34 599.67 184.732 577 193.8C534.51 210.797 492.807 231.249 456 258.76C445.073 266.927 436.05 276.813 426 285.895C422.903 288.694 419.169 290.522 416 293.213C408.371 299.691 401.354 307.106 394 313.91C389.591 317.988 384.475 321.178 380 325.174C365.56 338.067 350.749 352.27 338.209 367C327.267 379.853 318.14 394.421 308.076 408C279.764 446.205 251.483 484.738 225.947 525C215.995 540.69 206.07 556.364 197.753 573C193.08 582.348 188.302 592.465 187.174 603C185.016 623.138 196.319 637.452 213 647.396C239.33 663.092 266.545 662.325 296 660M618 532C625.267 526.506 635.18 524.9 644 523.845L677 519.845C722.664 514.381 768.394 509.208 814 503.282C828.084 501.451 842.017 499.098 856 496.576C860.383 495.785 869.03 495.846 872.534 493.006C874.48 491.429 872.663 489.805 870.922 489.317C867.303 488.302 862.731 489 859 489C843.283 489 827.673 490 812 490C767.359 490 722.555 490.01 678 491.961C663.38 492.601 648.595 491.02 634 492.09C627.288 492.582 620.51 494.999 614 496.627C600.628 499.97 587.33 503.611 574 507.116C550.871 513.197 527.695 519.435 505 527C494.633 530.456 483.725 533.414 474 538.486C429.053 561.931 387.698 593.257 341 613.15C312.44 625.316 279.963 631.587 249 626.562C241.136 625.285 233.712 621.765 227.004 617.532C223.472 615.303 220.315 612.478 220.398 608C220.508 602.099 223.325 596.256 225.694 591C231.184 578.823 238.123 567.438 245 556C269.745 514.845 298.85 476.008 328.119 438C360.342 396.155 393.696 352.67 433 317.17C446.614 304.873 461.925 294.365 477 283.974C511.292 260.339 547.347 241.262 586 225.8C609.617 216.353 633.933 206.641 659 201.805C680.193 197.716 701.539 197.511 723 196.985C748.347 196.365 773.64 197.172 799 198.911C856.817 202.875 917.418 208.261 965 244.887C980.357 256.708 987.211 272.74 992.421 291C996.717 306.054 997.031 320.548 998.089 336C999.658 358.908 999 382.008 999 405C999 424.605 999.9 444.68 996.197 464C993.312 479.051 990.91 494.437 985.996 509C984.009 514.89 981.848 522.434 976.815 526.487C973.839 528.883 969.628 529.517 966 530.349C957.415 532.316 948.717 533.214 940 534.285C905.098 538.571 868.171 538.501 833 536.961C761.429 533.827 689.743 532 618 532M369 532L369 534C373.731 534.924 377.749 532.798 382 530.742C388.706 527.497 395.337 524.085 402 520.753C414.303 514.602 427.053 508.944 439 502.127C455.005 492.996 470.336 482.515 486 472.808C526.784 447.533 567.273 421.789 608 396.424C631.923 381.524 657.193 367.644 680 351.079C701.126 335.736 720.809 317.974 741 301.424C756.648 288.599 772.227 275.671 788 263.001C796.916 255.839 807.809 248.911 815 240C807.818 240 798.951 238.594 792 240.499C786.303 242.061 780.959 246.488 776 249.576L748 266.95C726.401 280.47 704.66 293.769 683 307.192C657.328 323.102 631.601 338.925 606 354.95C595.397 361.587 584.125 367.571 574 374.921C504.361 425.471 438.873 481.771 369 532M998 698C992.431 698.115 978.335 698.148 975.024 703.279C971.631 708.535 972.487 718.905 971.834 725C970.371 738.66 968.686 752.712 965.115 766C958.872 789.231 940.225 810.708 926.576 830C912.263 850.23 898.821 871.708 897.089 897C895.959 913.512 897 930.448 897 947C897 953.538 898.676 962.818 896.397 969C893.868 975.858 885.067 981.933 880 987L840 1027C827.547 1039.45 815.243 1052.1 802 1063.71C790.004 1074.24 777.109 1083.72 765 1094.13C748.666 1108.17 730.631 1125.51 710 1132.91C698.09 1137.18 684.472 1137 672 1137C661.363 1137 650.627 1137.43 640 1136.96C631.859 1136.6 622.702 1135.67 615 1132.91C594.369 1125.51 576.334 1108.17 560 1094.13C547.566 1083.44 534.162 1073.81 522 1062.83C505.405 1047.85 489.81 1031.81 474 1016L442 984C437.715 979.715 430.75 974.823 428.603 969C427.484 965.964 428 962.178 428 959L428 939C428 913.444 430.453 887.735 419.219 864C405.119 834.21 381.049 810.43 366.37 781C357.408 763.032 353.918 741.168 348.025 722C346.534 717.153 345.641 711.599 343.351 707.058C340.433 701.271 330.99 704.225 329.318 698.772C328.33 695.549 329 691.338 329 688L329 665C329 661.701 328.026 656.366 330.028 653.51C332.946 649.347 342.453 647.86 347 645.989C357.242 641.776 367.162 636.819 377 631.742C382.591 628.856 387.717 625.12 394 624C398.428 633.474 407.303 642.741 409.606 653C410.48 656.891 409.819 661.047 410.09 665C411.229 681.643 410 699.952 418.312 715C425.919 728.77 439.302 743.301 453 751.121C461.322 755.872 470.844 758.545 480 761.14C497.515 766.105 515.848 769.627 534 771.086C548.309 772.236 566.544 774.917 580 768.676C600.845 759.008 615.682 735.155 629.919 718C634.505 712.474 640.392 701.38 647.171 698.603C652.682 696.346 663.102 697.544 669 698.059C677.966 698.84 685.678 712.665 691.13 719C703.22 733.047 714.743 748.319 729 760.246C733.713 764.189 739.06 769.317 745 771.298C749.567 772.82 755.247 772 760 772L789 772C816.601 772 844.055 771.469 869 757.688C876.328 753.639 882.132 747.868 888 742C901.476 728.524 915.97 711.66 921.56 693C925.584 679.569 924.863 665.734 926.17 652C927.122 641.997 927 632.058 927 622C927 615.654 927.478 609.208 926 603C888.01 615.148 849.285 625.238 811 636.424C791.355 642.164 771.161 650.145 751 653.679C739.808 655.641 728.292 655.316 717 656.089C687.077 658.139 656.042 659.968 626 657.911C590.517 655.481 554.682 649.194 520 641.576C498.907 636.942 477.414 630.765 456 628C454.764 619.597 451.75 611.172 449.421 603C448.51 599.801 446.462 595.436 447.644 592.105C449.783 586.076 462.728 581.595 468 578.579C473.347 575.52 479.102 571.636 485 569.796C493.953 567.004 503.778 567.542 513 566.911C527.251 565.935 541.725 565.364 556 565.015C582.356 564.369 608.726 565.684 635 565.996C675.973 566.483 717.076 565.247 758 567.039C794.929 568.656 832 571 869 571C895.393 571 921.774 569.896 948 566.95C957.834 565.845 971.275 559.999 979.996 566.174C987.099 571.204 994.916 580.492 997.362 589C1000.09 598.492 999 610.195 999 620L999 661C999 673.152 1000.22 686.024 998 698z"/>
</svg>
