<svg width="2500" height="1792" xmlns="http://www.w3.org/2000/svg">
 <g>
  <title>Layer 1</title>
  <path fill="black" id="svg_1" d="m872,364q-148,0 -273,73t-198,198t-73,273t73,273t198,198t273,73t273,-73t198,-198t73,-273t-73,-273t-198,-198t-273,-73zm768,544q0,209 -103,385.5t-279.5,279.5t-385.5,103t-385.5,-103t-279.5,-279.5t-103,-385.5t103,-385.5t279.5,-279.5t385.5,-103t385.5,103t279.5,279.5t103,385.5z"/>
  <path id="svg_2" fill="black" d="m1622,364q-148,0 -273,73t-198,198t-73,273t73,273t198,198t273,73t273,-73t198,-198t73,-273t-73,-273t-198,-198t-273,-73zm768,544q0,209 -103,385.5t-279.5,279.5t-385.5,103t-385.5,-103t-279.5,-279.5t-103,-385.5t103,-385.5t279.5,-279.5t385.5,-103t385.5,103t279.5,279.5t103,385.5z"/>
 </g>
</svg>